<svg width="19" height="19" viewBox="0 0 19 19" fill="none" xmlns="http://www.w3.org/2000/svg">
<path d="M8.3125 12.7142L5.34375 9.74542L6.18292 8.90625L8.3125 11.0358L12.8163 6.53125L13.6563 7.37121L8.3125 12.715V12.7142Z" fill="#C0A132"/>
<path d="M9.5 1.1875C7.29539 1.1875 5.18107 2.06328 3.62218 3.62218C2.06328 5.18107 1.1875 7.29539 1.1875 9.5C1.1875 11.7046 2.06328 13.8189 3.62218 15.3778C5.18107 16.9367 7.29539 17.8125 9.5 17.8125C11.7046 17.8125 13.8189 16.9367 15.3778 15.3778C16.9367 13.8189 17.8125 11.7046 17.8125 9.5C17.8125 7.29539 16.9367 5.18107 15.3778 3.62218C13.8189 2.06328 11.7046 1.1875 9.5 1.1875V1.1875ZM9.5 16.625C8.56433 16.625 7.63783 16.4407 6.77338 16.0826C5.90894 15.7246 5.12348 15.1998 4.46186 14.5381C3.80025 13.8765 3.27542 13.0911 2.91736 12.2266C2.55929 11.3622 2.375 10.4357 2.375 9.5C2.375 8.56433 2.55929 7.63783 2.91736 6.77338C3.27542 5.90894 3.80025 5.12348 4.46186 4.46186C5.12348 3.80025 5.90894 3.27542 6.77338 2.91736C7.63783 2.55929 8.56433 2.375 9.5 2.375C11.3897 2.375 13.2019 3.12567 14.5381 4.46186C15.8743 5.79806 16.625 7.61033 16.625 9.5C16.625 11.3897 15.8743 13.2019 14.5381 14.5381C13.2019 15.8743 11.3897 16.625 9.5 16.625Z" fill="#C0A132"/>
</svg>
