<svg width="20" height="20" viewBox="0 0 20 20" fill="none" xmlns="http://www.w3.org/2000/svg">
<path fill-rule="evenodd" clip-rule="evenodd" d="M13.5483 2.91669C13.8609 2.60424 14.2847 2.42871 14.7267 2.42871C15.1686 2.42871 15.5925 2.60424 15.905 2.91669L17.0833 4.09502C17.2382 4.24979 17.361 4.43356 17.4448 4.63581C17.5286 4.83806 17.5717 5.05484 17.5717 5.27377C17.5717 5.4927 17.5286 5.70948 17.4448 5.91173C17.361 6.11399 17.2382 6.29775 17.0833 6.45252L8.05918 15.4767C7.71013 15.8256 7.26562 16.0633 6.78168 16.16L4.33001 16.6509C4.1955 16.6777 4.05646 16.6709 3.92521 16.631C3.79396 16.5912 3.67457 16.5196 3.57763 16.4226C3.48069 16.3256 3.40919 16.2061 3.36949 16.0748C3.32978 15.9436 3.32309 15.8045 3.35001 15.67L3.84001 13.2184C3.93671 12.7344 4.17447 12.2899 4.52335 11.9409L13.5492 2.91669H13.5483ZM15.905 5.27419L14.7267 4.09502L14.1375 4.68419L15.3158 5.86335L15.905 5.27419ZM14.1375 7.04086L12.9583 5.86419L5.70168 13.1209C5.58533 13.2369 5.50589 13.3848 5.47335 13.5459L5.22835 14.7717L6.45418 14.5267C6.61546 14.4945 6.76363 14.4154 6.88001 14.2992L14.1367 7.04252L14.1375 7.04086Z" fill="#005EB8"/>
</svg>
