<svg width="310" height="379" viewBox="0 0 310 379" fill="none" xmlns="http://www.w3.org/2000/svg">
<path d="M37.6007 23.6199L5.2404 36.0978L3.18359 205.167L8.53128 240.407L31.019 289.907L63.2422 327.478L96.2881 350.514L126.592 366.42L154.29 373.002H166.082L210.235 353.805L241.91 334.06L267.003 308.418L294.015 264.814L306.493 221.347L302.517 36.0978L289.353 23.6199L219.559 7.71393L148.394 3.18896L98.8934 11.1419L37.6007 23.6199Z" fill="#E1E1DB" stroke="#1C1C1E"/>
<path d="M146.833 0.200165C107.26 1.43423 65.5204 8.83871 28.1414 21.2618C18.1042 24.6075 4.00829 29.9826 3.24041 30.7505C2.9936 30.9973 -0.13274 196.584 0.00437973 201.465C0.306044 210.186 2.55481 224.584 5.51661 236.486C18.2688 288.098 50.5743 329.316 99.581 356.603C116.584 366.091 136.85 374.154 153.469 378.076L156.075 378.707L160.051 377.555C162.245 376.924 167.483 375.251 171.706 373.852C224.744 356.109 263.686 325.97 287.107 284.56C298.296 264.705 305.947 241.257 308.552 218.715C309.594 209.445 309.622 210.049 308.141 121.305C307.4 74.9032 306.77 35.3852 306.77 33.5204V30.1198L301.778 27.9807C254.472 7.93375 201.736 -1.52756 146.833 0.200165ZM183.361 7.41269C216.819 9.82599 245.093 15.3931 274.437 25.3754C282.225 28.0356 296.842 33.7123 299.941 35.2755L301.01 35.824V38.9229C301.01 40.5957 301.148 49.2069 301.285 58.0374C302.135 106.496 303.506 194.966 303.534 201.602C303.561 217.618 300.956 233.524 295.526 250.143C280.964 294.652 250.111 329.672 205.163 352.599C190.848 359.921 177.081 365.324 159.503 370.534C155.444 371.741 155.636 371.768 147.436 369.41C118.174 361.045 90.2568 346.154 67.7143 326.93C60.584 320.842 50.3823 310.338 44.541 303.071C22.6018 275.812 9.65764 243.15 5.79085 205.304C5.37949 201.163 5.51661 192.36 7.84765 69.2264C8.14931 53.2931 8.39613 39.3891 8.39613 38.3195V36.3999L9.9593 35.6869C12.7566 34.3979 20.1336 31.5458 26.5508 29.2696C60.3098 17.2579 100.98 9.22266 137.838 7.30298C140.936 7.13843 144.2 6.97388 145.105 6.91904C149.685 6.64481 177.904 7.02875 183.361 7.41269Z" fill="#1C1C1E"/>
<path d="M142.36 13.6102C107.12 15.4476 74.321 21.2889 41.851 31.4907C31.8961 34.617 14.9754 40.9245 14.043 41.8569C13.851 42.0489 13.6042 51.0165 13.3026 67.5807C13.0283 81.5669 12.3702 117.136 11.7942 146.617C10.6973 204.92 10.6699 202.26 12.1233 212.571C17.0597 247.702 30.3055 277.868 51.8882 303.071C56.3034 308.226 65.4905 317.441 70.5091 321.746C83.2887 332.661 96.3151 341.245 112.056 349.116C125.138 355.643 140.056 361.264 152.041 364.199L155.935 365.159L159.719 364.062C220.436 346.456 263.355 311.874 284.8 263.333C290.45 250.581 294.755 235.772 296.867 221.896C298.458 211.447 298.567 207.937 298.128 180.677C297.909 167.432 297.361 132.987 296.894 104.109C296.456 75.232 295.989 49.234 295.907 46.3545L295.743 41.1439L290.34 38.8951C263.656 27.7884 237.247 20.6307 207.629 16.5172C199.402 15.3653 192.765 14.7072 181.165 13.857C175.872 13.4731 148.284 13.3085 142.36 13.6102ZM169.482 88.752L184.73 107.812V124.047V140.309H187.747H190.763V130.162V120.015L199.813 106.44C204.805 98.9812 208.918 92.8656 209 92.8656C209.083 92.8656 213.196 98.9812 218.187 106.44L227.237 120.015V166.773V213.531H196.797H166.356V200.834C166.356 187.04 166.246 185.998 164.793 183.31C163.888 181.665 161.886 179.58 160.268 178.621C157.059 176.756 152.342 176.509 149.079 178.045C145.815 179.608 143.512 182.24 142.47 185.586C141.976 187.122 141.949 188.274 141.949 200.395V213.531H111.371H80.7931V166.91V120.29L89.9253 106.578C94.9165 99.036 99.0849 92.893 99.1672 92.893C99.2495 92.893 103.418 99.036 108.437 106.578L117.541 120.29V130.299V140.309H120.558H123.575V123.992V107.675L138.822 88.6149C147.214 78.1115 154.125 69.5826 154.152 69.61C154.207 69.6649 161.091 78.276 169.482 88.752ZM243.28 225.186C247.778 226.393 252.166 229.602 254.826 233.606C259.762 241.038 259.241 251.157 253.564 257.931C250.63 261.386 247.668 263.333 243.28 264.595C240.099 265.5 233.847 265.5 230.693 264.595C224.413 262.785 219.586 258.452 217.173 252.419C215.802 249.045 215.418 244.822 216.131 241.367C217.995 232.454 224.084 226.311 232.503 224.775C234.642 224.419 241.333 224.665 243.28 225.186ZM75.4728 237.143L84.4953 248.716L84.5776 237.143L84.6325 225.598H89.7059H94.7793V244.795V263.991H89.7882H84.7696L75.7197 252.391L66.6697 240.791L66.5874 252.391L66.5326 263.991H61.4592H56.3857V244.795V225.598H61.4043H66.4503L75.4728 237.143ZM114.25 238.021C114.25 252.062 114.305 252.419 116.088 254.174C117.514 255.545 118.803 256.039 121.052 256.039C123.273 256.039 124.864 255.353 126.098 253.817C127.524 252.062 127.688 250.389 127.688 237.308V225.598H132.652H137.588L137.506 239.365C137.424 252.857 137.396 253.186 136.793 254.777C135.01 259.494 130.842 263.086 125.494 264.43C121.463 265.472 115.073 264.842 111.563 263.059C109.588 262.072 107.093 259.631 106.078 257.739C104.35 254.53 104.295 253.982 104.186 239.09L104.049 225.598H109.15H114.25V238.021ZM168.824 229.711V233.825H162.928H157.032V237.116V240.407L162.599 240.462L168.139 240.544V244.658V248.771L162.599 248.853L157.032 248.908V252.199V255.49L162.873 255.545L168.687 255.627L168.769 259.796L168.852 263.991H157.855H146.885V244.795V225.598H157.855H168.824V229.711ZM187.418 237.226C190.654 245.371 192.052 248.579 192.217 248.305C192.354 248.086 194.466 242.93 196.906 236.814L201.349 225.735L206.779 225.653C211.085 225.598 212.182 225.653 212.072 225.927C212.017 226.119 208.342 234.757 203.927 245.124L195.892 263.991H191.998H188.103L180.095 244.987C175.708 234.538 172.115 225.872 172.115 225.79C172.115 225.68 174.528 225.625 177.49 225.653L182.893 225.735L187.418 237.226ZM135.778 304.552C138.027 305.594 139.014 307.459 139.014 310.612C138.987 314.26 137.424 317.88 133.008 324.653L131.253 327.341H134.956H138.658V329.261V331.18H132.762H126.865V329.37V327.56L129.361 323.803C133.091 318.236 135.367 313.218 135.367 310.612C135.367 309.241 134.681 307.925 133.859 307.705C132.241 307.294 131.253 308.638 131.253 311.216V312.258H129.224H127.222L127.332 310.804C127.606 307.541 129.114 305.073 131.253 304.387C132.734 303.921 134.572 304.003 135.778 304.552ZM152.178 304.936C152.973 305.429 153.604 306.087 154.18 307.102L154.975 308.556V317.605V326.655L154.207 328.246C153.083 330.495 151.629 331.317 148.75 331.317C146.858 331.317 146.528 331.235 145.486 330.495C144.773 330.001 144.033 329.124 143.622 328.301L142.909 326.957V317.605C142.909 308.473 142.909 308.254 143.512 307.129C144.225 305.813 145.514 304.744 146.885 304.332C148.421 303.866 150.834 304.168 152.178 304.936ZM164.162 317.88V331.18H162.105H160.049V320.896V310.612H158.403H156.758V309.296C156.758 308.007 156.758 308.007 158.211 307.239C159.034 306.828 160.103 306.06 160.597 305.539C161.392 304.716 161.694 304.579 162.846 304.579H164.162V317.88ZM179.52 306.499V308.418H176.119H172.746L172.554 310.091C172.472 311.024 172.389 312.779 172.389 313.985C172.389 316.07 172.417 316.152 172.883 315.741C173.569 315.11 175.241 314.452 176.119 314.452C177.326 314.452 178.56 315.22 179.273 316.454C179.876 317.496 179.931 317.962 180.013 321.774C180.15 326.93 179.794 328.438 178.176 329.891C176.311 331.592 173.212 331.893 171.155 330.632C169.894 329.864 168.879 327.725 168.66 325.339L168.468 323.502H170.442H172.389V324.983C172.389 326.052 172.554 326.628 172.965 327.176C173.651 328.054 174.885 328.136 175.68 327.341C176.174 326.847 176.229 326.436 176.229 322.898C176.229 318.62 176.037 318.017 174.556 318.017C173.843 318.017 172.389 319.306 172.389 319.964C172.389 320.238 170.662 320.293 169.729 320.046C169.126 319.882 169.098 319.745 169.098 317.359C169.098 315.987 169.181 312.559 169.29 309.707L169.455 304.579H174.501H179.52V306.499Z" fill="#1C1C1E"/>
<path d="M144.912 100.545L135.917 111.789V126.049V140.31H141.95H147.984V133.646C147.984 127.558 148.038 126.899 148.559 125.775C149.245 124.267 150.013 123.417 151.274 122.758C154.401 121.14 158.048 122.429 159.666 125.665C160.132 126.625 160.187 127.503 160.27 133.509L160.379 140.31H166.385H172.391V126.104V111.926L163.341 100.6C158.35 94.402 154.209 89.3011 154.072 89.3011C153.962 89.3011 149.848 94.3746 144.912 100.545Z" fill="#1C1C1E"/>
<path d="M96.1005 119.275L93.1387 123.745V162.605V201.465H111.376H129.613V195.075C129.613 191.565 129.75 187.643 129.887 186.382C131.148 176.043 138.306 167.98 148.535 165.375C151.524 164.607 157.174 164.689 160.19 165.512C164.496 166.664 168.335 168.913 171.544 172.149C173.573 174.206 174.835 176.07 176.233 179.06C178.126 183.091 178.208 183.694 178.4 192.964L178.565 201.328H196.801H215.038L215.121 162.66L215.176 124.02L212.132 119.412C210.431 116.889 209.033 114.805 209.005 114.805C208.978 114.805 207.579 116.889 205.879 119.412L202.835 124.02V138.335V152.65L154.102 152.595L105.342 152.513L105.26 138.116L105.205 123.718L102.243 119.275C100.625 116.834 99.2542 114.805 99.172 114.805C99.0897 114.805 97.7185 116.834 96.1005 119.275ZM117.546 179.937V189.124H111.376H105.205V179.937V170.75H111.376H117.546V179.937ZM202.835 179.937V189.124H196.801H190.768V179.937V170.75H196.801H202.835V179.937Z" fill="#1C1C1E"/>
<path d="M234.67 234.402C232.01 234.923 229.021 237.062 227.622 239.475C226.169 241.943 225.757 245.262 226.553 247.922C227.458 250.911 230.173 253.9 232.942 254.97C235.136 255.82 238.811 255.792 241.032 254.942C243.226 254.119 245.612 251.843 246.764 249.512C247.614 247.812 247.669 247.483 247.669 244.932C247.669 242.437 247.587 242.025 246.819 240.407C244.598 235.745 239.826 233.387 234.67 234.402Z" fill="#1C1C1E"/>
<path d="M147.434 308.419C147.132 308.72 146.831 309.241 146.748 309.598C146.639 309.927 146.611 313.821 146.666 318.209L146.748 326.189L147.407 326.902C148.312 327.89 149.655 327.862 150.423 326.902C150.972 326.189 150.999 325.86 150.999 317.606V309.049L150.368 308.474C149.573 307.706 148.174 307.678 147.434 308.419Z" fill="#1C1C1E"/>
</svg>
